<?xml version="1.0" encoding="utf-8"?>
<!-- Generator: Adobe Illustrator 22.1.0, SVG Export Plug-In . SVG Version: 6.00 Build 0)  -->
<svg version="1.1" id="Layer_1" xmlns="http://www.w3.org/2000/svg" xmlns:xlink="http://www.w3.org/1999/xlink" x="0px" y="0px"
	 viewBox="0 0 100 100" style="enable-background:new 0 0 100 100;" xml:space="preserve">
<style type="text/css">
	.st0{fill:#FFFFFF;}
</style>
<g>
	<g>
		<g>
			<path class="st0" d="M95.7,95.7c-0.3,0.2-0.6,0.2-1,0.2H4.8c-0.4,0-0.7-0.1-1-0.2c-0.7-0.4-1.1-1.2-1-2.1
				c0.8-4.6,2.7-14.6,3-15.8c2.1-6.2,7.2-9.2,12.9-11.5c0.7-0.3,1.4-0.6,2.1-0.8c4.9-1.9,9.8-3.8,14.6-5.7c2.4,5.4,7.8,9.3,14.2,9.3
				s11.8-3.9,14.2-9.4c4.9,1.9,9.8,3.8,14.6,5.7c0.8,0.3,1.4,0.5,2.1,0.8c5.6,2.4,10.8,5.3,12.9,11.5c0.5,1.3,2.2,11.2,3,15.8
				C96.8,94.4,96.4,95.2,95.7,95.7z"/>
			<path class="st0" d="M67.5,39.8l2.7-14.2C71.7,14.1,62.9,4,51.4,4h-1.7h-1.6C36.5,4,27.7,14.1,29.2,25.6L32,39.8
				c1.7,8.5,9.1,14.6,17.8,14.6S65.8,48.3,67.5,39.8"/>
		</g>
	</g>
</g>
</svg>
