<?xml version="1.0" encoding="utf-8"?>
<!-- Generator: Adobe Illustrator 22.1.0, SVG Export Plug-In . SVG Version: 6.00 Build 0)  -->
<svg version="1.1" id="Layer_1" xmlns="http://www.w3.org/2000/svg" xmlns:xlink="http://www.w3.org/1999/xlink" x="0px" y="0px"
	 viewBox="0 0 100 100" style="enable-background:new 0 0 100 100;" xml:space="preserve">
<style type="text/css">
	.st0{fill:#FFFFFF;}
</style>
<g>
	<title>Gear-settings-setup-control</title>
	<circle class="st0" cx="36.5" cy="33.9" r="16"/>
	<circle class="st0" cx="72" cy="76.4" r="8.9"/>
	<path class="st0" d="M47.3,63.5c-0.2-0.4-0.3-0.8-0.2-1.2l-0.7-3.5c-0.1-0.7,0.2-1.4,0.8-1.8l5.9-3.8c0.6-0.4,1.4-0.4,2,0.1
		l4.7,3.4l2.8-3.2l-4-4.2c-0.5-0.5-0.6-1.3-0.3-2l2.9-6.4c0.3-0.7,1-1.1,1.7-1l5.8,0.3l0.6-4.2l-5.6-1.3c-0.7-0.2-1.2-0.8-1.3-1.5
		l-1-6.9c-0.1-0.7,0.2-1.4,0.9-1.8l5-2.9l-1.8-3.9l-5.4,1.9c-0.7,0.2-1.4,0-1.9-0.5l-4.6-5.3c-0.5-0.5-0.6-1.3-0.2-2l2.7-5.1
		l-3.6-2.3l-3.5,4.5c-0.4,0.6-1.2,0.8-1.9,0.6l-6.7-2c-0.7-0.2-1.2-0.8-1.3-1.5l-0.5-5.7H34l-0.5,5.7c-0.1,0.7-0.6,1.3-1.3,1.5
		l-6.7,2c-0.7,0.2-1.5,0-1.9-0.6L20,4.3l-3.6,2.3l2.7,5.1c0.3,0.6,0.2,1.4-0.2,2L14.2,19c-0.5,0.5-1.2,0.8-1.9,0.5l-5.4-1.9
		l-1.8,3.9l5,2.9c0.6,0.4,1,1.1,0.9,1.8l-1,6.9c-0.1,0.7-0.6,1.3-1.3,1.5L3,35.9l0.6,4.2l5.8-0.3c0.7,0,1.4,0.4,1.7,1l2.9,6.4
		c0.3,0.7,0.2,1.4-0.3,2l-4,4.2l2.8,3.2l4.7-3.4c0.6-0.4,1.4-0.4,2-0.1L25,57c0.6,0.4,0.9,1.1,0.8,1.8l-1.1,5.7l4.1,1.2l2.1-5.4
		c0.3-0.7,0.9-1.1,1.6-1.1h7c0.7,0,1.4,0.4,1.6,1.1l2.1,5.4l4.1-1.2L47.3,63.5z M36.5,53.4C25.7,53.4,17,44.7,17,33.9
		s8.7-19.5,19.5-19.5S56,23.1,56,33.9C56,44.6,47.3,53.4,36.5,53.4z"/>
	<path class="st0" d="M90.9,76.5c-0.6-0.2-1-0.7-1.1-1.3l-1.6-6.8c-0.1-0.6,0-1.2,0.4-1.6l4.1-4.3l-3.3-4.1l-5.2,3
		c-0.5,0.3-1.1,0.3-1.7,0.1l-6.3-3c-0.5-0.3-0.9-0.8-1-1.4l-0.8-5.9h-5.2l-0.8,5.9c-0.1,0.6-0.5,1.1-1,1.4l-6.3,3
		c-0.5,0.3-1.2,0.2-1.7-0.1l-5.1-3l-3.3,4.1l4.1,4.3c0.4,0.4,0.6,1,0.4,1.6l-1.6,6.8c-0.1,0.6-0.5,1.1-1.1,1.3l-5.6,2.1l1.2,5.1
		l6-0.5c0.6-0.1,1.2,0.2,1.5,0.7l4.4,5.5c0.4,0.5,0.5,1.1,0.3,1.6l-1.8,5.7l4.7,2.3l3.3-5c0.3-0.5,0.9-0.8,1.5-0.8h7
		c0.6,0,1.1,0.3,1.5,0.8l3.3,5l4.7-2.3L83.2,91c-0.2-0.6-0.1-1.2,0.3-1.6l4.4-5.5c0.4-0.5,0.9-0.7,1.5-0.7l6,0.5l1.2-5.1L90.9,76.5z
		 M72,88.9c-6.9,0-12.4-5.6-12.4-12.4S65.1,64,72,64s12.4,5.6,12.4,12.4l0,0C84.4,83.3,78.8,88.9,72,88.9z"/>
</g>
</svg>
