<?xml version="1.0" encoding="utf-8"?>
<!-- Generator: Adobe Illustrator 22.1.0, SVG Export Plug-In . SVG Version: 6.00 Build 0)  -->
<svg version="1.1" id="Layer_1" xmlns="http://www.w3.org/2000/svg" xmlns:xlink="http://www.w3.org/1999/xlink" x="0px" y="0px"
	 viewBox="0 0 100 100" style="enable-background:new 0 0 100 100;" xml:space="preserve">
<style type="text/css">
	.st0{fill:#FFFFFF;}
</style>
<g>
	<g>
		<path class="st0" d="M92.1,2H4.9C3.3,2,2,3.3,2,4.9v11.6c0,1.6,1.3,2.9,2.9,2.9h87.2c1.6,0,2.9-1.3,2.9-2.9V4.9
			C95,3.3,93.7,2,92.1,2z"/>
		<path class="st0" d="M7.8,92.1c0,1,0.6,2,1.4,2.5c0.9,0.5,2,0.5,2.9,0l18.8-10.7l15.9,10.6c1,0.6,2.2,0.6,3.2,0l16-10.6l18.8,10.7
			c0.5,0.3,0.9,0.4,1.4,0.4s1-0.1,1.5-0.4c0.9-0.5,1.4-1.5,1.4-2.5V25.3H7.8V92.1z M63,31.1h5.8c1.6,0,2.9,1.3,2.9,2.9
			c0,1.6-1.3,2.9-2.9,2.9H63c-1.6,0-2.9-1.3-2.9-2.9C60.1,32.4,61.4,31.1,63,31.1z M63,48.5h5.8c1.6,0,2.9,1.3,2.9,2.9
			c0,1.6-1.3,2.9-2.9,2.9H63c-1.6,0-2.9-1.3-2.9-2.9S61.4,48.5,63,48.5z M63,65.9h5.8c1.6,0,2.9,1.3,2.9,2.9s-1.3,2.9-2.9,2.9H63
			c-1.6,0-2.9-1.3-2.9-2.9S61.4,65.9,63,65.9z M22.3,31.1h23.2c1.6,0,2.9,1.3,2.9,2.9c0,1.6-1.3,2.9-2.9,2.9H22.3
			c-1.6,0-2.9-1.3-2.9-2.9C19.4,32.4,20.7,31.1,22.3,31.1z M22.3,48.5h23.2c1.6,0,2.9,1.3,2.9,2.9c0,1.6-1.3,2.9-2.9,2.9H22.3
			c-1.6,0-2.9-1.3-2.9-2.9S20.7,48.5,22.3,48.5z M22.3,65.9h23.2c1.6,0,2.9,1.3,2.9,2.9s-1.3,2.9-2.9,2.9H22.3
			c-1.6,0-2.9-1.3-2.9-2.9S20.7,65.9,22.3,65.9z"/>
	</g>
</g>
</svg>
