<?xml version="1.0" encoding="utf-8"?>
<!-- Generator: Adobe Illustrator 22.1.0, SVG Export Plug-In . SVG Version: 6.00 Build 0)  -->
<svg version="1.1" id="Layer_1" xmlns="http://www.w3.org/2000/svg" xmlns:xlink="http://www.w3.org/1999/xlink" x="0px" y="0px"
	 viewBox="0 0 146.8 32.3" style="enable-background:new 0 0 146.8 32.3;" xml:space="preserve">
<style type="text/css">
	.st0{fill-rule:evenodd;clip-rule:evenodd;fill:#231F20;}
	.st1{fill-rule:evenodd;clip-rule:evenodd;fill:#E92A2B;}
	.st2{fill-rule:evenodd;clip-rule:evenodd;fill:#00A9E2;stroke:#FFFFFF;stroke-width:0.216;stroke-miterlimit:2.4142;}
	.st3{fill-rule:evenodd;clip-rule:evenodd;fill:#373A95;}
	.st4{fill:#373A95;}
</style>
<path class="st0" d="M15.9,1.9L16.4,2l0.5,0.1l0.5,0.2l0.5,0.2l0.5,0.2l0.5,0.2l0.4,0.2l0.4,0.3l0.4,0.3l0.4,0.3L21,4.3l0.4,0.3
	l0.4,0.3l0.3,0.4l0.3,0.4l0.3,0.4L23,6.5l0.3,0.4l0.2,0.4l0.2,0.4l0.2,0.5l0.2,0.5l0.2,0.5l0.1,0.5l0.1,0.5l0.1,0.5l0.1,0.5l0,0.5
	v0.5l0,0.5l0,0.5l-0.1,0.5l-0.1,0.5l-0.1,0.5l-0.2,0.5L24,15.7l-0.2,0.5l-0.2,0.5l-0.2,0.5L23,17.5l-0.3,0.4l-0.3,0.4l-0.3,0.4
	L21.7,19l-0.3,0.4L21,19.7L20.6,20l-0.4,0.3l-0.4,0.3l-0.4,0.3l-0.4,0.2l-0.4,0.2L18,21.5l-0.5,0.2L17,21.8L16.5,22L16,22.1
	l-0.5,0.1l-0.6,0.1l-0.5,0h-0.5l-0.6,0l-0.5,0l-0.6-0.1L11.7,22l-0.5-0.1l-0.5-0.2l-0.5-0.2l-0.5-0.2l-0.5-0.2l-0.4-0.2l-0.4-0.3
	l-0.4-0.3L7.5,20l-0.4-0.3l-0.4-0.3L6.4,19L6,18.7l-0.3-0.4l-0.3-0.4l-0.3-0.4l-0.3-0.4l-0.2-0.4l-0.2-0.4l-0.2-0.5L4,15.3l-0.2-0.5
	l-0.1-0.5l-0.1-0.5l-0.1-0.5l-0.1-0.5l0-0.5v-0.5l0-0.5l0-0.5l0.1-0.5l0.1-0.5l0.1-0.5L4,8.7l0.2-0.5l0.2-0.5l0.2-0.5l0.2-0.4
	l0.3-0.4L5.4,6l0.3-0.4L6,5.3l0.3-0.4l0.3-0.4l0.4-0.3l0.4-0.3l0.4-0.3l0.4-0.3l0.4-0.3l0.4-0.2l0.4-0.2l0.5-0.2l0.5-0.2l0.5-0.2
	L11.7,2l0.5-0.1l0.5-0.1l0.6-0.1l0.5,0h0.5l0.6,0l0.5,0L15.9,1.9L15.9,1.9z M14,1.8l0.6,0.1L15,2.1l0.5,0.1L16,2.4l0.5,0.2L17,2.8
	L17.4,3l0.4,0.3l0.4,0.3l0.4,0.3l0.4,0.3l0.4,0.3l0.4,0.4l0.3,0.4l0.3,0.4L20.8,6l0.3,0.4l0.3,0.4l0.2,0.4l0.2,0.4l0.2,0.5l0.2,0.5
	l0.2,0.5l0.1,0.5l0.1,0.5l0.1,0.5l0.1,0.5l0,0.5v0.5l0,0.5l0,0.5l-0.1,0.5l-0.1,0.5l-0.1,0.5l-0.2,0.5l-0.2,0.5l-0.2,0.5l-0.2,0.4
	L21.4,17l-0.3,0.4l-0.3,0.4l-0.3,0.4l-0.3,0.4L19.8,19l-0.3,0.3l-0.4,0.3L18.7,20l-0.4,0.3l-0.4,0.3l-0.4,0.2L17,21l-0.4,0.2
	l-0.5,0.2l-0.5,0.2l-0.5,0.1l-0.5,0.1L14.1,22l-0.5,0.1l-0.6,0l-0.5,0H12h-0.6l-0.5-0.1L10.4,22l-0.6-0.1l-0.5-0.1l-0.5-0.2
	l-0.5-0.2l-0.5-0.2l-0.5-0.2l-0.4-0.3l-0.4-0.2L6,20.3L5.6,20l-0.4-0.3l-0.4-0.3L4.5,19l-0.3-0.4l-0.3-0.4l-0.3-0.4l-0.3-0.4L2.9,17
	l-0.2-0.5l-0.2-0.4l-0.2-0.5l-0.2-0.5l-0.2-0.5l-0.1-0.5l-0.1-0.5l-0.1-0.5l-0.1-0.5l0-0.5v-0.5l0-0.5l0-0.5l0.1-0.5l0.1-0.5
	l0.1-0.5l0.2-0.5l0.2-0.5l0.2-0.5l0.2-0.5l0.2-0.4l0.3-0.4L3.5,6l0.3-0.4l0.3-0.4l0.3-0.4l0.3-0.3l0.4-0.3l0.4-0.3L6,3.6l0.4-0.3
	L6.9,3l0.4-0.2l0.4-0.2l0.5-0.2l0.5-0.2l0.5-0.2L9.8,2l0.5-0.1l0.5-0.1l0.6-0.1h0.5l0.5,0l0.6,0l0.5,0.1L14,1.8L14,1.8z"/>
<polygon class="st0" points="13.2,15.6 19,25.2 13.3,30.7 7.5,25.3 13.2,15.6 "/>
<polygon class="st0" points="14.7,14.9 14.3,15 13.9,15.1 13.5,15.2 13.1,15.2 12.7,15.2 12.3,15.1 11.9,15 11.6,14.9 11.2,14.7 
	10.8,14.5 10.5,14.3 10.3,14 10,13.7 9.8,13.4 9.6,13.1 9.4,12.7 9.2,12.3 9.2,11.9 9.1,11.5 9.1,11.1 9.1,10.7 9.2,10.3 9.3,10 
	9.4,9.6 9.6,9.3 9.8,8.9 10,8.6 10.3,8.3 10.6,8.1 10.9,7.8 11.3,7.6 11.7,7.5 12.1,7.3 12.4,7.2 12.8,7.2 13.2,7.2 13.6,7.2 
	14,7.3 14.4,7.4 14.8,7.5 15.1,7.7 15.5,7.9 15.8,8.1 16,8.4 16.3,8.7 16.6,9 16.8,9.3 17,9.7 17.1,10.1 17.2,10.5 17.2,10.9 
	17.2,11.3 17.2,11.7 17.1,12.1 17,12.4 16.9,12.8 16.7,13.1 16.5,13.5 16.3,13.7 16,14 15.7,14.3 15.4,14.5 15,14.7 14.7,14.9 "/>
<path class="st1" d="M16,1.8l0.5,0.1L17.1,2l0.5,0.2l0.5,0.2l0.5,0.2l0.5,0.2l0.5,0.2l0.4,0.3l0.5,0.3L21,3.8l0.4,0.3l0.4,0.3
	l0.4,0.3l0.3,0.4l0.3,0.4l0.3,0.4l0.3,0.4l0.3,0.4l0.2,0.4l0.2,0.4l0.2,0.5l0.2,0.5L24.9,9L25,9.5l0.1,0.5l0.1,0.5l0.1,0.5v0.5
	l0,0.5l0,0.5l-0.1,0.5l-0.1,0.5L25,14.1l-0.1,0.5l-0.2,0.5l-0.2,0.5L24.3,16l-0.2,0.5l-0.3,0.5l-0.3,0.4l-0.3,0.4l-0.3,0.4l-0.3,0.4
	l-0.4,0.4l-0.4,0.4l-0.4,0.3L21,19.9l-0.4,0.3l-0.4,0.3l-0.5,0.3L19.2,21l-0.5,0.2l-0.5,0.2l-0.5,0.2l-0.5,0.1l-0.5,0.1l-0.5,0.1
	L15.6,22l-0.5,0.1l-0.5,0H14l-0.5,0l-0.6,0L12.3,22l-0.5-0.1l-0.6-0.1l-0.5-0.2l-0.5-0.2l-0.5-0.2L9.1,21l-0.5-0.2l-0.5-0.3
	l-0.4-0.3l-0.4-0.3l-0.4-0.3l-0.4-0.3l-0.4-0.3l-0.4-0.4l-0.3-0.4l-0.3-0.4l-0.3-0.4l-0.3-0.4l-0.3-0.4L4,16.1l-0.2-0.5l-0.2-0.5
	l-0.2-0.5l-0.1-0.5l-0.1-0.5l-0.1-0.5L3,12.7l0-0.5v-0.5l0-0.5l0-0.5l0.1-0.5l0.1-0.5l0.1-0.5l0.2-0.5l0.2-0.5L4,7.7l0.2-0.5
	l0.3-0.4l0.3-0.4l0.3-0.4l0.3-0.4l0.3-0.4l0.4-0.4l0.4-0.4l0.4-0.3l0.4-0.3l0.4-0.3l0.4-0.3l0.4-0.3l0.5-0.2l0.5-0.2l0.5-0.2
	l0.5-0.2L11.1,2l0.5-0.1l0.5-0.1l0.5-0.1l0.5-0.1l0.5,0h0.6l0.5,0l0.6,0L16,1.8L16,1.8z M14.1,1.7l0.5,0.1l0.6,0.1l0.5,0.1l0.5,0.2
	l0.5,0.2l0.5,0.2l0.5,0.2l0.5,0.3l0.4,0.3l0.4,0.3L19.5,4l0.4,0.3l0.4,0.4l0.4,0.4l0.3,0.4l0.3,0.4l0.3,0.4l0.3,0.4l0.3,0.4l0.2,0.4
	L22.5,8l0.2,0.5L22.9,9L23,9.5l0.1,0.5l0.1,0.5l0.1,0.5l0,0.5V12l0,0.5l0,0.5l-0.1,0.5L23,14l-0.1,0.5L22.7,15l-0.2,0.5L22.3,16
	l-0.2,0.4l-0.3,0.5l-0.3,0.4l-0.3,0.4l-0.3,0.4l-0.3,0.4l-0.4,0.4l-0.4,0.3l-0.4,0.3L19,19.8l-0.4,0.3l-0.4,0.3l-0.4,0.2l-0.5,0.2
	l-0.5,0.2l-0.5,0.2l-0.5,0.2l-0.5,0.1l-0.5,0.1l-0.5,0.1L13.6,22l-0.5,0l-0.5,0H12h-0.5L10.8,22l-0.6-0.1l-0.5-0.1l-0.5-0.1
	l-0.5-0.2l-0.5-0.2l-0.5-0.2l-0.5-0.2l-0.5-0.3l-0.4-0.2l-0.5-0.3l-0.4-0.3l-0.4-0.3l-0.4-0.3l-0.4-0.4l-0.3-0.4l-0.3-0.4l-0.3-0.4
	l-0.3-0.4l-0.3-0.4l-0.2-0.5L2,16l-0.2-0.5l-0.2-0.5l-0.2-0.5l-0.1-0.5l-0.1-0.5l-0.1-0.5L1,12.6v-0.5l0-0.5l0-0.5l0.1-0.5L1.2,10
	l0.1-0.5L1.4,9l0.2-0.5l0.2-0.5L2,7.6l0.2-0.5l0.3-0.4l0.3-0.4l0.3-0.4l0.3-0.4l0.3-0.4l0.4-0.4l0.4-0.3L4.9,4l0.4-0.3l0.4-0.3
	l0.4-0.3l0.5-0.3l0.4-0.2l0.5-0.2l0.5-0.2l0.5-0.2l0.5-0.2l0.5-0.1l0.5-0.1l0.5-0.1l0.5-0.1h0.5l0.6,0l0.5,0l0.6,0.1L14.1,1.7
	L14.1,1.7z"/>
<polygon class="st2" points="13.2,15.3 19,24.9 13.3,30.4 7.5,24.9 13.2,15.3 "/>
<polygon class="st3" points="13.2,15.5 13.3,30.2 18.9,24.9 13.2,15.5 "/>
<polygon class="st3" points="14.7,14.6 14.3,14.7 13.9,14.8 13.5,14.8 13.1,14.9 12.7,14.8 12.3,14.8 11.9,14.7 11.6,14.5 
	11.2,14.4 10.8,14.2 10.5,13.9 10.3,13.7 10,13.4 9.8,13 9.6,12.7 9.4,12.3 9.2,11.9 9.2,11.5 9.1,11.1 9.1,10.8 9.1,10.4 9.2,10 
	9.3,9.6 9.4,9.3 9.6,8.9 9.8,8.6 10,8.3 10.3,8 10.6,7.7 10.9,7.5 11.3,7.3 11.7,7.1 12.1,7 12.4,6.9 12.8,6.9 13.2,6.9 13.6,6.9 
	14,6.9 14.4,7 14.8,7.2 15.1,7.4 15.5,7.6 15.8,7.8 16,8.1 16.3,8.3 16.6,8.7 16.8,9 17,9.4 17.1,9.7 17.2,10.1 17.2,10.5 
	17.2,10.9 17.2,11.3 17.1,11.7 17,12.1 16.9,12.4 16.7,12.8 16.5,13.1 16.3,13.4 16,13.7 15.7,14 15.4,14.2 15,14.4 14.7,14.6 "/>
<polygon class="st3" points="34.1,20.2 34.1,8.1 37.4,8.1 37.4,20.2 34.1,20.2 "/>
<path class="st3" d="M55,20.3V8.2h3.7h0.5h0.4h0.3l0.4,0.1h0.3l0.3,0.1h0.2l0.3,0.1h0.2l0.2,0.1l0.2,0.1l0.2,0.1l0.2,0.1l0.2,0.1
	L63,9l0.2,0.1l0.2,0.1l0.2,0.2l0.2,0.2l0.2,0.1L64,9.8l0.2,0.2l0.2,0.2l0.1,0.2l0.1,0.3l0.1,0.2l0.1,0.2l0.1,0.2l0.1,0.3v0.2v0.3
	l0.1,0.2l-0.1,0.4l-0.1,0.4l-0.1,0.4l-0.2,0.3l-0.2,0.4L64,14.2l-0.3,0.3l-0.4,0.3L62.9,15l-0.5,0.3l-0.5,0.2l-0.5,0.2l-0.5,0.1
	l-0.6,0.1l-0.5,0.1h-0.7l0,0H59h-0.1h-0.1l0,0h-0.1l0,0h-0.1l0,0h-0.1l0,0h-0.1l0,0l0,0h-0.1l0,0v4.4H55L55,20.3z M58.9,10.4h-0.5
	v3.3h0.6h0.3l0.3-0.1h0.2l0.2-0.1h0.2l0.2-0.1l0.2-0.1l0.2-0.1l0.2-0.2l0.2-0.1l0.1-0.2l0.2-0.1v-0.2l0.1-0.2l0.1-0.2V12v-0.2
	l-0.1-0.2l-0.1-0.2v-0.2l-0.2-0.2l-0.1-0.1l-0.2-0.2L61,10.8l-0.2-0.1l-0.2-0.1l-0.2-0.1h-0.2l-0.3-0.1h-0.2l-0.4-0.1H58.9
	L58.9,10.4z"/>
<polygon class="st3" points="83,19.9 83,17.6 87.5,17.6 87.8,17.6 88.1,17.6 88.3,17.5 88.5,17.5 88.7,17.5 88.8,17.5 89,17.5 
	89.1,17.4 89.2,17.3 89.4,17.2 89.5,17.1 89.5,17 89.6,16.9 89.7,16.7 89.7,16.6 89.7,16.4 89.6,16 89.5,15.8 89.3,15.6 89.1,15.4 
	88.8,15.3 88.4,15.3 88.1,15.3 87.7,15.3 86,15.3 85.1,15.3 84.4,15 84.1,14.8 83.8,14.7 83.5,14.5 83.3,14.2 82.9,13.7 82.7,13 
	82.5,12.2 82.4,11.4 82.5,11 82.5,10.7 82.6,10.4 82.7,10.1 82.8,9.9 82.8,9.6 83,9.3 83.1,9 83.3,8.8 83.5,8.6 83.8,8.4 84,8.3 
	84.3,8.1 84.6,8 84.9,7.9 85.2,7.9 85.4,7.8 85.6,7.8 85.7,7.8 85.9,7.8 86.1,7.8 86.3,7.8 86.5,7.8 86.7,7.8 92.2,7.8 92.2,10.2 
	87.3,10.2 87,10.2 86.8,10.2 86.6,10.2 86.5,10.3 86.3,10.3 86.3,10.3 86.2,10.3 86,10.4 85.9,10.4 85.7,10.4 85.6,10.5 85.5,10.6 
	85.4,10.7 85.3,10.9 85.3,11 85.3,11.3 85.3,11.5 85.3,11.6 85.4,11.8 85.5,11.9 85.6,12 85.6,12.1 85.8,12.1 85.9,12.2 86,12.3 
	86.1,12.3 86.3,12.4 86.3,12.4 86.5,12.4 86.6,12.4 86.9,12.4 87,12.4 88.8,12.4 89.1,12.5 89.5,12.5 89.8,12.5 90,12.5 90.2,12.6 
	90.5,12.6 90.7,12.6 90.9,12.6 91.2,12.8 91.4,13 91.6,13.1 91.9,13.2 92,13.5 92.2,13.7 92.3,13.9 92.5,14.2 92.6,14.4 92.6,14.7 
	92.6,15 92.7,15.3 92.7,15.6 92.8,15.9 92.8,16.1 92.8,16.4 92.8,16.7 92.8,17 92.7,17.2 92.7,17.5 92.6,17.7 92.6,17.9 92.5,18.1 
	92.3,18.4 92.2,18.6 92,18.9 91.8,19.1 91.6,19.3 91.3,19.5 91,19.7 90.7,19.7 90.4,19.8 90.2,19.8 90.1,19.8 89.8,19.9 89.6,19.9 
	89.4,19.9 89.1,19.9 88.8,19.9 88.5,19.9 83,19.9 "/>
<polygon class="st3" points="40.1,14.9 40.9,14.7 41.7,14.6 42.4,14.4 43.1,14.4 43.9,14.3 44.6,14.3 45.3,14.4 46.1,14.6 
	47.5,14.9 48.8,15.4 50.1,16 51.5,16.8 51.4,17.2 51.3,17.6 51.2,18 51,18.4 50.9,18.9 50.8,19.3 50.7,19.6 50.6,20.1 50,19.5 
	49.4,18.9 48.8,18.4 48.3,17.9 47,17.2 45.8,16.6 44.5,16.1 43.1,15.7 41.7,15.3 40.1,14.9 "/>
<polygon class="st3" points="39.4,14.9 40.2,14.7 41,14.5 41.8,14.4 42.5,14.4 43.3,14.3 44,14.3 44.7,14.4 45.4,14.5 46.8,14.9 
	48.2,15.4 49.5,16 50.8,16.7 50.7,17.1 50.7,17.6 50.5,18 50.3,18.4 50.3,18.8 50.1,19.3 50,19.6 50,20 49.3,19.4 48.8,18.8 
	48.2,18.4 47.6,17.9 46.4,17.1 45.1,16.6 43.8,16 42.5,15.6 41,15.3 39.4,14.9 "/>
<path class="st3" d="M38.9,20l7.2-12.4h0.2l7,12.4h-3.5L49,18.3l-4.8-2l-1,2L42.4,20H38.9L38.9,20z M48.3,15.6l-1.9-3.8l-1.9,3.8
	H48.3L48.3,15.6z"/>
<path class="st3" d="M66.3,14.1v-0.3l0.1-0.3v-0.3l0.1-0.3l0.1-0.3l0.1-0.3l0.2-0.3l0.1-0.3l0.2-0.3l0.2-0.3l0.2-0.3l0.2-0.3
	l0.2-0.3L68,10l0.2-0.3l0.3-0.3l0.2-0.2L69,9.1l0.3-0.2l0.3-0.2l0.2-0.2l0.3-0.2l0.3-0.1l0.4-0.2L71.2,8L71.5,8l0.4-0.1l0.3-0.1
	l0.3-0.1h0.4h0.4l0.3-0.1L74,7.7h0.3h0.4L75,7.8l0.4,0.1L75.7,8L76.1,8l0.3,0.1l0.3,0.2L77,8.4l0.3,0.2l0.3,0.2l0.3,0.2l0.2,0.2
	l0.3,0.3l0.2,0.2L79,9.7l0.2,0.3l0.2,0.3l0.2,0.3l0.2,0.3L80,11l0.2,0.3l0.2,0.3l0.2,0.3l0.1,0.3l0.1,0.3l0.1,0.3l0.1,0.3l0.1,0.3
	v0.3v0.3v0.3v0.3L80.7,15v0.3l-0.1,0.3l-0.1,0.3L80.5,16l-0.1,0.3l-0.1,0.3l-0.1,0.3L80.1,17L80,17.2l-0.1,0.3l-0.2,0.3l-0.2,0.2
	l-0.2,0.3l-0.2,0.3l-0.3,0.3l-0.3,0.3l-0.3,0.3l-0.3,0.3l-0.3,0.2l-0.4,0.2l-0.4,0.2L76.4,20L76,20.2l-0.4,0.1l-0.4,0.1l-0.4,0.1
	h-0.4L74,20.5h-0.5h-0.3h-0.4l-0.4-0.1h-0.3l-0.3-0.1l-0.4-0.1l-0.3-0.1L70.9,20L70.5,20l-0.3-0.2l-0.3-0.2l-0.3-0.2l-0.3-0.2
	l-0.2-0.2l-0.3-0.2l-0.2-0.3l-0.3-0.3L68,18.2l-0.2-0.3l-0.2-0.3l-0.2-0.3l-0.2-0.3L67,16.9l-0.2-0.3l-0.1-0.3L66.6,16l-0.1-0.3
	l-0.1-0.3l-0.1-0.3v-0.3l-0.1-0.3V14.1L66.3,14.1z M69.8,14.1v0.3l0.1,0.4l0.1,0.3l0.1,0.3l0.2,0.3l0.2,0.3l0.2,0.3l0.2,0.3l0.2,0.3
	l0.3,0.2l0.3,0.3l0.3,0.1l0.4,0.2l0.3,0.1h0.4l0.4,0.1l0.4-0.1h0.4l0.4-0.1l0.3-0.2l0.3-0.1l0.3-0.3L76,17l0.2-0.3l0.3-0.3l0.2-0.3
	l0.2-0.3l0.2-0.3l0.1-0.3l0.1-0.3l0.1-0.4v-0.3v-0.4l-0.1-0.3l-0.1-0.4l-0.1-0.3l-0.2-0.3L76.8,12l-0.2-0.3l-0.3-0.3L76,11.2
	L75.7,11l-0.3-0.2l-0.3-0.2l-0.3-0.2l-0.4-0.1H74h-0.4h-0.4h-0.4l-0.3,0.1l-0.4,0.2l-0.3,0.2L71.5,11l-0.3,0.2l-0.2,0.3l-0.2,0.3
	L70.5,12l-0.2,0.3l-0.2,0.3L70,12.9l-0.1,0.4l-0.1,0.3V14.1L69.8,14.1z"/>
<g>
	<path class="st4" d="M34.6,27.5V24h0.7v3.5H34.6L34.6,27.5z M38.4,27.5h-0.7v-1.3c0-0.3,0-0.4,0-0.5c0-0.1-0.1-0.1-0.1-0.2
		c-0.1,0-0.1-0.1-0.2-0.1c-0.1,0-0.2,0-0.3,0.1c-0.1,0.1-0.2,0.1-0.2,0.2c0,0.1-0.1,0.3-0.1,0.6v1.1H36V25h0.6v0.4
		c0.2-0.3,0.5-0.4,0.9-0.4c0.2,0,0.3,0,0.4,0.1c0.1,0.1,0.2,0.1,0.3,0.2c0.1,0.1,0.1,0.2,0.1,0.3c0,0.1,0,0.3,0,0.4V27.5L38.4,27.5z
		 M38.9,26.8l0.7-0.1c0,0.1,0.1,0.2,0.2,0.3c0.1,0.1,0.2,0.1,0.4,0.1c0.2,0,0.3,0,0.4-0.1c0.1,0,0.1-0.1,0.1-0.2
		c0-0.1,0-0.1-0.1-0.1c0,0-0.1-0.1-0.2-0.1c-0.6-0.1-0.9-0.2-1.1-0.3c-0.2-0.1-0.3-0.3-0.3-0.6c0-0.2,0.1-0.4,0.3-0.5
		c0.2-0.1,0.5-0.2,0.8-0.2c0.4,0,0.6,0.1,0.8,0.2c0.2,0.1,0.3,0.3,0.4,0.5l-0.7,0.1c0-0.1-0.1-0.2-0.2-0.2c-0.1-0.1-0.2-0.1-0.3-0.1
		c-0.2,0-0.3,0-0.4,0.1c-0.1,0-0.1,0.1-0.1,0.1c0,0,0,0.1,0.1,0.1c0.1,0,0.3,0.1,0.7,0.2c0.4,0.1,0.6,0.2,0.8,0.3
		c0.1,0.1,0.2,0.3,0.2,0.5c0,0.2-0.1,0.4-0.3,0.6c-0.2,0.2-0.5,0.2-0.9,0.2c-0.4,0-0.6-0.1-0.9-0.2C39.1,27.2,38.9,27,38.9,26.8
		L38.9,26.8z M43.2,25v0.5h-0.5v1c0,0.2,0,0.3,0,0.4c0,0,0,0.1,0.1,0.1c0,0,0.1,0,0.1,0c0.1,0,0.2,0,0.3-0.1l0.1,0.5
		c-0.2,0.1-0.3,0.1-0.6,0.1c-0.1,0-0.2,0-0.3-0.1c-0.1,0-0.2-0.1-0.2-0.2c0-0.1-0.1-0.1-0.1-0.3c0-0.1,0-0.2,0-0.5v-1.1h-0.3V25H42
		v-0.5l0.7-0.4V25H43.2L43.2,25z M43.7,24.6V24h0.7v0.6H43.7L43.7,24.6z M43.7,27.5V25h0.7v2.5H43.7L43.7,27.5z M46.3,25v0.5h-0.5v1
		c0,0.2,0,0.3,0,0.4c0,0,0,0.1,0.1,0.1c0,0,0.1,0,0.1,0c0.1,0,0.2,0,0.3-0.1l0.1,0.5c-0.2,0.1-0.3,0.1-0.6,0.1c-0.1,0-0.2,0-0.3-0.1
		c-0.1,0-0.2-0.1-0.2-0.2c0-0.1-0.1-0.1-0.1-0.3c0-0.1,0-0.2,0-0.5v-1.1h-0.3V25h0.3v-0.5l0.7-0.4V25H46.3L46.3,25z M48.5,27.5v-0.4
		c-0.1,0.1-0.2,0.2-0.4,0.3c-0.2,0.1-0.3,0.1-0.5,0.1c-0.2,0-0.3,0-0.5-0.1c-0.1-0.1-0.2-0.2-0.3-0.3c-0.1-0.1-0.1-0.3-0.1-0.6V25
		h0.7v1.1c0,0.4,0,0.6,0,0.6c0,0.1,0.1,0.1,0.1,0.2c0.1,0,0.2,0.1,0.3,0.1c0.1,0,0.2,0,0.3-0.1c0.1-0.1,0.2-0.1,0.2-0.2
		c0-0.1,0.1-0.3,0.1-0.7V25h0.7v2.5H48.5L48.5,27.5z M51.1,25v0.5h-0.5v1c0,0.2,0,0.3,0,0.4c0,0,0,0.1,0.1,0.1c0,0,0.1,0,0.1,0
		c0.1,0,0.2,0,0.3-0.1l0.1,0.5c-0.2,0.1-0.3,0.1-0.6,0.1c-0.1,0-0.2,0-0.3-0.1c-0.1,0-0.2-0.1-0.2-0.2c0-0.1-0.1-0.1-0.1-0.3
		c0-0.1,0-0.2,0-0.5v-1.1h-0.3V25h0.3v-0.5l0.7-0.4V25H51.1L51.1,25z M51.4,26.2c0-0.2,0.1-0.4,0.2-0.6c0.1-0.2,0.3-0.4,0.5-0.5
		c0.2-0.1,0.4-0.2,0.7-0.2c0.4,0,0.7,0.1,1,0.4c0.3,0.2,0.4,0.6,0.4,0.9c0,0.4-0.1,0.7-0.4,0.9c-0.3,0.2-0.6,0.4-1,0.4
		c-0.2,0-0.5-0.1-0.7-0.2c-0.2-0.1-0.4-0.3-0.5-0.5C51.5,26.7,51.4,26.5,51.4,26.2L51.4,26.2z M52.1,26.2c0,0.2,0.1,0.4,0.2,0.6
		c0.1,0.1,0.3,0.2,0.5,0.2c0.2,0,0.3-0.1,0.5-0.2c0.1-0.1,0.2-0.3,0.2-0.6c0-0.2-0.1-0.4-0.2-0.6c-0.1-0.1-0.3-0.2-0.5-0.2
		c-0.2,0-0.3,0.1-0.5,0.2C52.2,25.8,52.1,26,52.1,26.2L52.1,26.2z M59.2,27.5h-0.8l-0.3-0.8h-1.5l-0.3,0.8h-0.8L57,24h0.8L59.2,27.5
		L59.2,27.5z M57.8,26.1l-0.5-1.3l-0.5,1.3H57.8L57.8,26.1z M61.3,27.5v-0.4c-0.1,0.1-0.2,0.2-0.4,0.3c-0.2,0.1-0.3,0.1-0.5,0.1
		c-0.2,0-0.3,0-0.5-0.1c-0.1-0.1-0.2-0.2-0.3-0.3c-0.1-0.1-0.1-0.3-0.1-0.6V25h0.7v1.1c0,0.4,0,0.6,0,0.6c0,0.1,0.1,0.1,0.1,0.2
		c0.1,0,0.2,0.1,0.3,0.1c0.1,0,0.2,0,0.3-0.1c0.1-0.1,0.2-0.1,0.2-0.2c0-0.1,0.1-0.3,0.1-0.7V25H62v2.5H61.3L61.3,27.5z M63.9,25
		v0.5h-0.5v1c0,0.2,0,0.3,0,0.4c0,0,0,0.1,0.1,0.1c0,0,0.1,0,0.1,0c0.1,0,0.2,0,0.3-0.1l0.1,0.5c-0.2,0.1-0.3,0.1-0.6,0.1
		c-0.1,0-0.2,0-0.3-0.1c-0.1,0-0.2-0.1-0.2-0.2c0-0.1-0.1-0.1-0.1-0.3c0-0.1,0-0.2,0-0.5v-1.1h-0.3V25h0.3v-0.5l0.7-0.4V25H63.9
		L63.9,25z M64.9,25.7l-0.6-0.1c0.1-0.2,0.2-0.4,0.4-0.5c0.2-0.1,0.4-0.2,0.8-0.2c0.3,0,0.5,0,0.7,0.1c0.2,0.1,0.3,0.2,0.3,0.3
		c0.1,0.1,0.1,0.3,0.1,0.6l0,0.8c0,0.2,0,0.4,0,0.5c0,0.1,0.1,0.2,0.1,0.3H66c0,0,0-0.1-0.1-0.2c0,0,0-0.1,0-0.1
		c-0.1,0.1-0.2,0.2-0.4,0.2c-0.1,0.1-0.3,0.1-0.4,0.1c-0.3,0-0.5-0.1-0.6-0.2c-0.2-0.1-0.2-0.3-0.2-0.5c0-0.1,0-0.3,0.1-0.4
		c0.1-0.1,0.2-0.2,0.3-0.3c0.1-0.1,0.3-0.1,0.6-0.2c0.3-0.1,0.6-0.1,0.7-0.2v-0.1c0-0.1,0-0.2-0.1-0.3c-0.1-0.1-0.2-0.1-0.4-0.1
		c-0.1,0-0.2,0-0.3,0.1C65,25.5,65,25.6,64.9,25.7L64.9,25.7z M65.9,26.3c-0.1,0-0.2,0.1-0.4,0.1c-0.2,0-0.3,0.1-0.4,0.1
		c-0.1,0.1-0.1,0.1-0.1,0.2c0,0.1,0,0.2,0.1,0.2c0.1,0.1,0.2,0.1,0.3,0.1c0.1,0,0.2,0,0.4-0.1c0.1-0.1,0.1-0.1,0.2-0.2
		c0-0.1,0-0.2,0-0.3V26.3L65.9,26.3z M65.1,24.7l0.3-0.7h0.8l-0.7,0.7H65.1L65.1,24.7z M67.9,27.5h-0.7V25h0.6v0.4
		c0.1-0.2,0.2-0.3,0.3-0.3c0.1-0.1,0.2-0.1,0.3-0.1c0.2,0,0.3,0,0.5,0.1l-0.2,0.6c-0.1-0.1-0.2-0.1-0.3-0.1c-0.1,0-0.2,0-0.2,0.1
		C68,25.6,68,25.7,68,25.9c0,0.1-0.1,0.4-0.1,0.8V27.5L67.9,27.5z M70.9,28.4v-1.3c-0.1,0.1-0.2,0.2-0.3,0.3
		c-0.1,0.1-0.3,0.1-0.4,0.1c-0.3,0-0.5-0.1-0.7-0.3c-0.2-0.2-0.3-0.6-0.3-1c0-0.4,0.1-0.7,0.3-0.9c0.2-0.2,0.5-0.3,0.8-0.3
		c0.2,0,0.3,0,0.5,0.1c0.1,0.1,0.2,0.2,0.3,0.3V25h0.6v3.5H70.9L70.9,28.4z M71,26.2c0-0.3-0.1-0.4-0.2-0.6
		c-0.1-0.1-0.2-0.2-0.4-0.2c-0.2,0-0.3,0.1-0.4,0.2c-0.1,0.1-0.2,0.3-0.2,0.6c0,0.3,0.1,0.5,0.2,0.6c0.1,0.1,0.2,0.2,0.4,0.2
		c0.2,0,0.3-0.1,0.4-0.2C70.9,26.7,71,26.5,71,26.2L71,26.2z M74.1,27.5v-0.4c-0.1,0.1-0.2,0.2-0.4,0.3c-0.2,0.1-0.3,0.1-0.5,0.1
		c-0.2,0-0.3,0-0.5-0.1c-0.1-0.1-0.2-0.2-0.3-0.3c-0.1-0.1-0.1-0.3-0.1-0.6V25H73v1.1c0,0.4,0,0.6,0,0.6c0,0.1,0.1,0.1,0.1,0.2
		c0.1,0,0.2,0.1,0.3,0.1c0.1,0,0.2,0,0.3-0.1c0.1-0.1,0.2-0.1,0.2-0.2c0-0.1,0.1-0.3,0.1-0.7V25h0.7v2.5H74.1L74.1,27.5z M75.4,24.6
		V24h0.7v0.6H75.4L75.4,24.6z M75.4,27.5V25h0.7v2.5H75.4L75.4,27.5z M79.1,25.7l-0.7,0.1c0-0.1-0.1-0.2-0.2-0.3
		c-0.1-0.1-0.2-0.1-0.3-0.1c-0.2,0-0.3,0.1-0.4,0.2c-0.1,0.1-0.2,0.3-0.2,0.6c0,0.3,0.1,0.5,0.2,0.6c0.1,0.1,0.2,0.2,0.4,0.2
		c0.1,0,0.2,0,0.3-0.1c0.1-0.1,0.1-0.2,0.2-0.4l0.7,0.1c-0.1,0.3-0.2,0.5-0.4,0.7c-0.2,0.2-0.5,0.2-0.8,0.2c-0.4,0-0.7-0.1-0.9-0.3
		c-0.2-0.2-0.3-0.6-0.3-1c0-0.4,0.1-0.7,0.3-1c0.2-0.2,0.5-0.3,0.9-0.3c0.3,0,0.6,0.1,0.8,0.2C78.9,25.3,79.1,25.5,79.1,25.7
		L79.1,25.7z M79.5,26.2c0-0.2,0.1-0.4,0.2-0.6c0.1-0.2,0.3-0.4,0.5-0.5c0.2-0.1,0.4-0.2,0.7-0.2c0.4,0,0.7,0.1,1,0.4
		c0.3,0.2,0.4,0.6,0.4,0.9c0,0.4-0.1,0.7-0.4,0.9c-0.3,0.2-0.6,0.4-1,0.4c-0.2,0-0.5-0.1-0.7-0.2c-0.2-0.1-0.4-0.3-0.5-0.5
		C79.6,26.7,79.5,26.5,79.5,26.2L79.5,26.2z M80.2,26.2c0,0.2,0.1,0.4,0.2,0.6c0.1,0.1,0.3,0.2,0.5,0.2c0.2,0,0.3-0.1,0.5-0.2
		c0.1-0.1,0.2-0.3,0.2-0.6c0-0.2-0.1-0.4-0.2-0.6c-0.1-0.1-0.3-0.2-0.5-0.2c-0.2,0-0.3,0.1-0.5,0.2C80.3,25.8,80.2,26,80.2,26.2
		L80.2,26.2z M84.2,27.5V24h1.2c0.4,0,0.7,0,0.9,0.1c0.2,0.1,0.4,0.2,0.5,0.3c0.1,0.2,0.2,0.4,0.2,0.7c0,0.2,0,0.4-0.1,0.5
		c-0.1,0.1-0.2,0.3-0.3,0.3c-0.1,0.1-0.3,0.1-0.4,0.2c-0.2,0-0.4,0-0.8,0h-0.5v1.3H84.2L84.2,27.5z M84.9,24.6v1h0.4
		c0.3,0,0.5,0,0.6-0.1c0.1,0,0.2-0.1,0.2-0.2c0.1-0.1,0.1-0.2,0.1-0.3c0-0.1,0-0.2-0.1-0.3c-0.1-0.1-0.2-0.1-0.3-0.2
		c-0.1,0-0.3,0-0.5,0H84.9L84.9,24.6z M88.3,27.5h-0.7V25h0.6v0.4c0.1-0.2,0.2-0.3,0.3-0.3c0.1-0.1,0.2-0.1,0.3-0.1
		c0.2,0,0.3,0,0.5,0.1l-0.2,0.6c-0.1-0.1-0.2-0.1-0.3-0.1c-0.1,0-0.2,0-0.2,0.1c-0.1,0.1-0.1,0.1-0.2,0.3c0,0.1-0.1,0.4-0.1,0.8
		V27.5L88.3,27.5z M89.4,26.2c0-0.2,0.1-0.4,0.2-0.6c0.1-0.2,0.3-0.4,0.5-0.5c0.2-0.1,0.4-0.2,0.7-0.2c0.4,0,0.7,0.1,1,0.4
		c0.3,0.2,0.4,0.6,0.4,0.9c0,0.4-0.1,0.7-0.4,0.9c-0.3,0.2-0.6,0.4-1,0.4c-0.2,0-0.5-0.1-0.7-0.2c-0.2-0.1-0.4-0.3-0.5-0.5
		C89.5,26.7,89.4,26.5,89.4,26.2L89.4,26.2z M90.1,26.2c0,0.2,0.1,0.4,0.2,0.6c0.1,0.1,0.3,0.2,0.5,0.2c0.2,0,0.3-0.1,0.5-0.2
		c0.1-0.1,0.2-0.3,0.2-0.6c0-0.2-0.1-0.4-0.2-0.6c-0.1-0.1-0.3-0.2-0.5-0.2c-0.2,0-0.3,0.1-0.5,0.2C90.2,25.8,90.1,26,90.1,26.2
		L90.1,26.2z M93.4,27.5L92.3,25h0.7l0.5,1.3l0.1,0.4c0-0.1,0.1-0.2,0.1-0.2c0-0.1,0-0.1,0.1-0.2l0.5-1.3h0.7l-1,2.5H93.4L93.4,27.5
		z M95.5,24.6V24h0.7v0.6H95.5L95.5,24.6z M95.5,27.5V25h0.7v2.5H95.5L95.5,27.5z M99.3,27.5h-0.7v-1.3c0-0.3,0-0.4,0-0.5
		c0-0.1-0.1-0.1-0.1-0.2c-0.1,0-0.1-0.1-0.2-0.1c-0.1,0-0.2,0-0.3,0.1c-0.1,0.1-0.2,0.1-0.2,0.2c0,0.1-0.1,0.3-0.1,0.6v1.1h-0.7V25
		h0.6v0.4c0.2-0.3,0.5-0.4,0.9-0.4c0.2,0,0.3,0,0.4,0.1c0.1,0.1,0.2,0.1,0.3,0.2c0.1,0.1,0.1,0.2,0.1,0.3c0,0.1,0,0.3,0,0.4V27.5
		L99.3,27.5z M102.3,25.7l-0.7,0.1c0-0.1-0.1-0.2-0.2-0.3c-0.1-0.1-0.2-0.1-0.3-0.1c-0.2,0-0.3,0.1-0.4,0.2
		c-0.1,0.1-0.2,0.3-0.2,0.6c0,0.3,0.1,0.5,0.2,0.6c0.1,0.1,0.2,0.2,0.4,0.2c0.1,0,0.2,0,0.3-0.1c0.1-0.1,0.1-0.2,0.2-0.4l0.7,0.1
		c-0.1,0.3-0.2,0.5-0.4,0.7c-0.2,0.2-0.5,0.2-0.8,0.2c-0.4,0-0.7-0.1-0.9-0.3c-0.2-0.2-0.3-0.6-0.3-1c0-0.4,0.1-0.7,0.3-1
		c0.2-0.2,0.5-0.3,0.9-0.3c0.3,0,0.6,0.1,0.8,0.2C102.1,25.3,102.3,25.5,102.3,25.7L102.3,25.7z M102.9,24.6V24h0.7v0.6H102.9
		L102.9,24.6z M102.9,27.5V25h0.7v2.5H102.9L102.9,27.5z M104.8,25.7l-0.6-0.1c0.1-0.2,0.2-0.4,0.4-0.5c0.2-0.1,0.4-0.2,0.8-0.2
		c0.3,0,0.5,0,0.7,0.1c0.2,0.1,0.3,0.2,0.3,0.3c0.1,0.1,0.1,0.3,0.1,0.6l0,0.8c0,0.2,0,0.4,0,0.5c0,0.1,0.1,0.2,0.1,0.3h-0.7
		c0,0,0-0.1-0.1-0.2c0,0,0-0.1,0-0.1c-0.1,0.1-0.2,0.2-0.4,0.2c-0.1,0.1-0.3,0.1-0.4,0.1c-0.3,0-0.5-0.1-0.6-0.2
		c-0.2-0.1-0.2-0.3-0.2-0.5c0-0.1,0-0.3,0.1-0.4c0.1-0.1,0.2-0.2,0.3-0.3c0.1-0.1,0.3-0.1,0.6-0.2c0.3-0.1,0.6-0.1,0.7-0.2v-0.1
		c0-0.1,0-0.2-0.1-0.3c-0.1-0.1-0.2-0.1-0.4-0.1c-0.1,0-0.2,0-0.3,0.1C104.9,25.5,104.9,25.6,104.8,25.7L104.8,25.7z M105.7,26.3
		c-0.1,0-0.2,0.1-0.4,0.1c-0.2,0-0.3,0.1-0.4,0.1c-0.1,0.1-0.1,0.1-0.1,0.2c0,0.1,0,0.2,0.1,0.2c0.1,0.1,0.2,0.1,0.3,0.1
		c0.1,0,0.2,0,0.4-0.1c0.1-0.1,0.1-0.1,0.2-0.2c0-0.1,0-0.2,0-0.3V26.3L105.7,26.3z M107.1,27.5V24h0.7v3.5H107.1L107.1,27.5z
		 M112.4,27.5h-0.6v-0.4c-0.1,0.1-0.2,0.2-0.4,0.3c-0.1,0.1-0.3,0.1-0.4,0.1c-0.3,0-0.6-0.1-0.8-0.3c-0.2-0.2-0.3-0.6-0.3-1
		c0-0.4,0.1-0.7,0.3-1c0.2-0.2,0.5-0.3,0.8-0.3c0.3,0,0.6,0.1,0.8,0.3V24h0.7V27.5L112.4,27.5z M110.5,26.2c0,0.3,0,0.5,0.1,0.6
		c0.1,0.2,0.3,0.3,0.5,0.3c0.2,0,0.3-0.1,0.4-0.2c0.1-0.1,0.2-0.3,0.2-0.6c0-0.3-0.1-0.5-0.2-0.6c-0.1-0.1-0.2-0.2-0.4-0.2
		c-0.2,0-0.3,0.1-0.4,0.2C110.6,25.7,110.5,25.9,110.5,26.2L110.5,26.2z M114.6,26.7l0.7,0.1c-0.1,0.2-0.2,0.4-0.4,0.6
		c-0.2,0.1-0.4,0.2-0.7,0.2c-0.5,0-0.8-0.1-1-0.4c-0.2-0.2-0.3-0.5-0.3-0.9c0-0.4,0.1-0.7,0.3-1c0.2-0.2,0.5-0.4,0.9-0.4
		c0.4,0,0.7,0.1,0.9,0.4c0.2,0.2,0.3,0.6,0.3,1.1h-1.8c0,0.2,0.1,0.3,0.2,0.5c0.1,0.1,0.2,0.2,0.4,0.2c0.1,0,0.2,0,0.3-0.1
		C114.5,26.9,114.6,26.8,114.6,26.7L114.6,26.7z M114.6,26c0-0.2-0.1-0.3-0.2-0.4c-0.1-0.1-0.2-0.1-0.4-0.1c-0.2,0-0.3,0.1-0.4,0.2
		c-0.1,0.1-0.1,0.2-0.1,0.4H114.6L114.6,26z M117.2,25.8c0-0.4,0.1-0.6,0.2-0.9c0.1-0.2,0.2-0.3,0.3-0.5c0.1-0.1,0.3-0.2,0.5-0.3
		c0.2-0.1,0.5-0.1,0.8-0.1c0.5,0,1,0.2,1.3,0.5c0.3,0.3,0.5,0.8,0.5,1.3c0,0.6-0.2,1-0.5,1.3c-0.3,0.3-0.7,0.5-1.3,0.5
		c-0.5,0-1-0.2-1.3-0.5C117.3,26.8,117.2,26.3,117.2,25.8L117.2,25.8z M117.9,25.8c0,0.4,0.1,0.7,0.3,0.9c0.2,0.2,0.4,0.3,0.7,0.3
		c0.3,0,0.5-0.1,0.7-0.3c0.2-0.2,0.3-0.5,0.3-0.9c0-0.4-0.1-0.7-0.3-0.9c-0.2-0.2-0.4-0.3-0.7-0.3c-0.3,0-0.5,0.1-0.7,0.3
		C118,25.1,117.9,25.4,117.9,25.8L117.9,25.8z M121.2,27.5V24h0.7v1.2c0.2-0.2,0.5-0.3,0.8-0.3c0.3,0,0.6,0.1,0.8,0.3
		c0.2,0.2,0.3,0.5,0.3,0.9c0,0.4-0.1,0.8-0.3,1c-0.2,0.2-0.5,0.3-0.8,0.3c-0.2,0-0.3,0-0.4-0.1c-0.1-0.1-0.3-0.2-0.4-0.3v0.4H121.2
		L121.2,27.5z M121.9,26.2c0,0.3,0,0.4,0.1,0.6c0.1,0.2,0.3,0.3,0.5,0.3c0.2,0,0.3-0.1,0.4-0.2s0.2-0.3,0.2-0.6
		c0-0.3-0.1-0.5-0.2-0.6c-0.1-0.1-0.2-0.2-0.4-0.2c-0.2,0-0.3,0.1-0.4,0.2C122,25.7,121.9,25.9,121.9,26.2L121.9,26.2z M125.1,27.5
		h-0.7V25h0.6v0.4c0.1-0.2,0.2-0.3,0.3-0.3c0.1-0.1,0.2-0.1,0.3-0.1c0.2,0,0.3,0,0.5,0.1l-0.2,0.6c-0.1-0.1-0.2-0.1-0.3-0.1
		c-0.1,0-0.2,0-0.2,0.1c-0.1,0.1-0.1,0.1-0.2,0.3c0,0.1-0.1,0.4-0.1,0.8V27.5L125.1,27.5z M126.9,25.7l-0.6-0.1
		c0.1-0.2,0.2-0.4,0.4-0.5c0.2-0.1,0.4-0.2,0.8-0.2c0.3,0,0.5,0,0.7,0.1c0.2,0.1,0.3,0.2,0.3,0.3c0.1,0.1,0.1,0.3,0.1,0.6l0,0.8
		c0,0.2,0,0.4,0,0.5c0,0.1,0.1,0.2,0.1,0.3H128c0,0,0-0.1-0.1-0.2c0,0,0-0.1,0-0.1c-0.1,0.1-0.2,0.2-0.4,0.2
		c-0.1,0.1-0.3,0.1-0.4,0.1c-0.3,0-0.5-0.1-0.6-0.2c-0.2-0.1-0.2-0.3-0.2-0.5c0-0.1,0-0.3,0.1-0.4c0.1-0.1,0.2-0.2,0.3-0.3
		c0.1-0.1,0.3-0.1,0.6-0.2c0.3-0.1,0.6-0.1,0.7-0.2v-0.1c0-0.1,0-0.2-0.1-0.3c-0.1-0.1-0.2-0.1-0.4-0.1c-0.1,0-0.2,0-0.3,0.1
		C127,25.5,126.9,25.6,126.9,25.7L126.9,25.7z M127.8,26.3c-0.1,0-0.2,0.1-0.4,0.1c-0.2,0-0.3,0.1-0.4,0.1c-0.1,0.1-0.1,0.1-0.1,0.2
		c0,0.1,0,0.2,0.1,0.2c0.1,0.1,0.2,0.1,0.3,0.1c0.1,0,0.2,0,0.4-0.1c0.1-0.1,0.1-0.1,0.2-0.2c0-0.1,0-0.2,0-0.3V26.3L127.8,26.3z
		 M130.4,26.4l0.7-0.1c0,0.2,0.1,0.4,0.3,0.5c0.1,0.1,0.3,0.2,0.5,0.2c0.2,0,0.4,0,0.5-0.1c0.1-0.1,0.2-0.2,0.2-0.3
		c0-0.1,0-0.2-0.1-0.2c-0.1-0.1-0.1-0.1-0.3-0.1c-0.1,0-0.3-0.1-0.6-0.2c-0.4-0.1-0.7-0.2-0.8-0.3c-0.2-0.2-0.3-0.4-0.3-0.7
		c0-0.2,0.1-0.3,0.2-0.5c0.1-0.2,0.3-0.3,0.5-0.3c0.2-0.1,0.4-0.1,0.7-0.1c0.5,0,0.8,0.1,1,0.3c0.2,0.2,0.4,0.4,0.4,0.8l-0.7,0
		c0-0.2-0.1-0.3-0.2-0.4c-0.1-0.1-0.3-0.1-0.5-0.1c-0.2,0-0.4,0-0.5,0.1c-0.1,0.1-0.1,0.1-0.1,0.2c0,0.1,0,0.2,0.1,0.2
		c0.1,0.1,0.3,0.2,0.7,0.2c0.4,0.1,0.6,0.2,0.8,0.2c0.2,0.1,0.3,0.2,0.4,0.4c0.1,0.1,0.1,0.3,0.1,0.5c0,0.2-0.1,0.4-0.2,0.6
		c-0.1,0.2-0.3,0.3-0.5,0.4c-0.2,0.1-0.5,0.1-0.8,0.1c-0.5,0-0.8-0.1-1.1-0.3C130.6,27,130.5,26.7,130.4,26.4L130.4,26.4z
		 M133.8,26.2c0-0.2,0.1-0.4,0.2-0.6c0.1-0.2,0.3-0.4,0.5-0.5c0.2-0.1,0.4-0.2,0.7-0.2c0.4,0,0.7,0.1,1,0.4c0.3,0.2,0.4,0.6,0.4,0.9
		c0,0.4-0.1,0.7-0.4,0.9c-0.3,0.2-0.6,0.4-1,0.4c-0.2,0-0.5-0.1-0.7-0.2c-0.2-0.1-0.4-0.3-0.5-0.5C133.9,26.7,133.8,26.5,133.8,26.2
		L133.8,26.2z M134.6,26.2c0,0.2,0.1,0.4,0.2,0.6c0.1,0.1,0.3,0.2,0.5,0.2c0.2,0,0.3-0.1,0.5-0.2c0.1-0.1,0.2-0.3,0.2-0.6
		c0-0.2-0.1-0.4-0.2-0.6c-0.1-0.1-0.3-0.2-0.5-0.2c-0.2,0-0.3,0.1-0.5,0.2C134.6,25.8,134.6,26,134.6,26.2L134.6,26.2z M139.4,25.7
		l-0.7,0.1c0-0.1-0.1-0.2-0.2-0.3c-0.1-0.1-0.2-0.1-0.3-0.1c-0.2,0-0.3,0.1-0.4,0.2c-0.1,0.1-0.2,0.3-0.2,0.6c0,0.3,0.1,0.5,0.2,0.6
		c0.1,0.1,0.2,0.2,0.4,0.2c0.1,0,0.2,0,0.3-0.1c0.1-0.1,0.1-0.2,0.2-0.4l0.7,0.1c-0.1,0.3-0.2,0.5-0.4,0.7c-0.2,0.2-0.5,0.2-0.8,0.2
		c-0.4,0-0.7-0.1-0.9-0.3c-0.2-0.2-0.3-0.6-0.3-1c0-0.4,0.1-0.7,0.3-1c0.2-0.2,0.5-0.3,0.9-0.3c0.3,0,0.6,0.1,0.8,0.2
		C139.2,25.3,139.3,25.5,139.4,25.7L139.4,25.7z M139.9,24.6V24h0.7v0.6H139.9L139.9,24.6z M139.9,27.5V25h0.7v2.5H139.9L139.9,27.5
		z"/>
	<path class="st4" d="M141.9,25.7l-0.6-0.1c0.1-0.2,0.2-0.4,0.4-0.5c0.2-0.1,0.4-0.2,0.8-0.2c0.3,0,0.5,0,0.7,0.1
		c0.2,0.1,0.3,0.2,0.3,0.3c0.1,0.1,0.1,0.3,0.1,0.6l0,0.8c0,0.2,0,0.4,0,0.5c0,0.1,0.1,0.2,0.1,0.3H143c0,0,0-0.1-0.1-0.2
		c0,0,0-0.1,0-0.1c-0.1,0.1-0.2,0.2-0.4,0.2c-0.1,0.1-0.3,0.1-0.4,0.1c-0.3,0-0.5-0.1-0.6-0.2c-0.2-0.1-0.2-0.3-0.2-0.5
		c0-0.1,0-0.3,0.1-0.4c0.1-0.1,0.2-0.2,0.3-0.3c0.1-0.1,0.3-0.1,0.6-0.2c0.3-0.1,0.6-0.1,0.7-0.2v-0.1c0-0.1,0-0.2-0.1-0.3
		c-0.1-0.1-0.2-0.1-0.4-0.1c-0.1,0-0.2,0-0.3,0.1C142,25.5,141.9,25.6,141.9,25.7L141.9,25.7z M142.8,26.3c-0.1,0-0.2,0.1-0.4,0.1
		c-0.2,0-0.3,0.1-0.4,0.1c-0.1,0.1-0.1,0.1-0.1,0.2c0,0.1,0,0.2,0.1,0.2c0.1,0.1,0.2,0.1,0.3,0.1c0.1,0,0.2,0,0.4-0.1
		c0.1-0.1,0.1-0.1,0.2-0.2c0-0.1,0-0.2,0-0.3V26.3L142.8,26.3z M144.2,27.5V24h0.7v3.5H144.2L144.2,27.5z"/>
</g>
</svg>
